# xmcd CD database file
#
# Track frame offsets:
#	150
#	16443
#	31624
#	55634
#	66219
#	82557
#	101476
#	119834
#	136406
#	156920
#	174397
#	190903
#
# Disc length: 2713 seconds
#
# Revision: 1
# Processed by: cddbd v1.5.2PL0 Copyright (c) Steve Scherf et al.
# Submitted via: CDex 1.70beta2
#
DISCID=920a970c
DTITLE=Sultans Of String - Yalla Yalla!
DYEAR=2008
DGENRE=Jazz
TTITLE0=Yalla Yalla!
TTITLE1=Stomping at the Rex
TTITLE2=Sable Island
TTITLE3=Auyuittuq Sunrise
TTITLE4=Al Vuelo
TTITLE5=Highlander 10 Speed
TTITLE6=Tikal
TTITLE7=Gardens of Lebanon
TTITLE8=Gymnorumba
TTITLE9=Travesia
TTITLE10=Pinball Wizard
TTITLE11=Le Bisou
EXTD=YEAR: 2008
EXTT0=
EXTT1=
EXTT2=
EXTT3=
EXTT4=
EXTT5=
EXTT6=
EXTT7=
EXTT8=
EXTT9=
EXTT10=
EXTT11=
PLAYORDER=
